<svg width="186" height="60" viewBox="0 0 186 60" fill="none" xmlns="http://www.w3.org/2000/svg">
<path d="M92.3627 45.0783C92.3627 43.4601 91.5192 42.7397 89.4311 42.7397H87.3328V50.4549H88.0939V47.3334H89.5546C91.6221 47.3334 92.3627 46.5399 92.3627 45.0783ZM91.5912 45.0783C91.5912 46.1954 91.0152 46.6339 89.5031 46.6339H88.0939V43.4392H89.174C90.6243 43.4392 91.5912 43.5123 91.5912 45.0783Z" fill="#3DD9C9" stroke="#3DD9C9" stroke-width="0.831012"/>
<path d="M107.643 50.455L104.372 42.7397H103.518L100.258 50.455H101.06L102.171 47.8554H105.709L106.81 50.455H107.643ZM105.411 47.1559H102.459L103.95 43.6167L105.411 47.1559Z" fill="#3DD9C9" stroke="#3DD9C9" stroke-width="0.831012"/>
<path d="M121.247 42.7397H120.414L118.202 47.0619L116.042 42.7397H115.199L117.832 47.8763V50.455H118.593V47.8763L121.247 42.7397Z" fill="#3DD9C9" stroke="#3DD9C9" stroke-width="0.831012"/>
<path d="M147.668 46.6025C147.668 44.3997 145.858 42.604 143.656 42.604C141.476 42.604 139.634 44.4101 139.634 46.5504C139.634 48.795 141.424 50.5907 143.656 50.5907C145.858 50.5907 147.668 48.7845 147.668 46.6025ZM146.896 46.613C146.896 48.3982 145.426 49.8807 143.656 49.8807C141.867 49.8807 140.406 48.3982 140.406 46.5712C140.406 44.8069 141.897 43.3139 143.656 43.3139C145.426 43.3139 146.896 44.8069 146.896 46.613Z" fill="#3DD9C9" stroke="#3DD9C9" stroke-width="0.831012"/>
<path d="M161.763 43.4392V42.7397H157.906V50.4549H158.667V46.9262H161.65V46.2267H158.667V43.4392L161.763 43.4392Z" fill="#3DD9C9" stroke="#3DD9C9" stroke-width="0.831012"/>
<path d="M174.143 43.4392V42.7397H170.286V50.4549H171.047V46.9262H174.03V46.2267H171.047V43.4392L174.143 43.4392Z" fill="#3DD9C9" stroke="#3DD9C9" stroke-width="0.831012"/>
<path d="M89.012 14.8839V10.0972H75.4755V37.1004H80.4077V26.0287H88.616V21.242H80.4077V14.8839H89.012Z" fill="#3DD9C9"/>
<path d="M105.824 37.1004V32.3136H97.6879V10.0972H92.7557V37.1004H105.824Z" fill="#3DD9C9"/>
<path d="M113.529 37.1004V10.0972H108.597V37.1004H113.529Z" fill="#3DD9C9"/>
<path d="M145.679 23.9824V23.3247H128.29V28.0018H139.306C137.866 30.9981 134.986 32.7521 131.494 32.7521C126.274 32.7521 122.278 28.7692 122.278 23.617C122.278 18.5379 125.95 14.4454 131.206 14.4454C134.302 14.4454 136.858 15.6878 138.514 18.0263H144.311C142.582 13.1665 137.11 9.62207 131.314 9.62207C123.538 9.62207 117.309 15.7974 117.309 23.5439C117.309 31.4366 123.61 37.5754 131.782 37.5754C139.63 37.5754 145.679 31.327 145.679 23.9824Z" fill="#3DD9C9"/>
<path d="M168.288 37.1004V10.0972H163.355V20.9862H153.851V10.0972H148.919V37.1004H153.851V25.7729H163.355V37.1004H168.288Z" fill="#3DD9C9"/>
<path d="M186 14.8839V10.0972H171.203V14.8839H176.135V37.1004H181.067V14.8839H186Z" fill="#3DD9C9"/>
<path d="M57.3729 14.5793C56.1596 14.5793 53.6752 10.709 42.1775 10.709C16.6977 10.709 2.3111 27.3047 2.3111 29.709C2.3111 32.1133 11.151 32.4652 11.151 37.0392C11.151 37.3911 11.151 37.6843 11.0932 37.9775C12.6532 35.2213 14.4443 32.1719 16.2932 29.2398C12.9999 30.0608 10.5733 31.1164 9.41771 32.3479C8.89771 32.817 8.55105 31.2337 8.55105 30.7645C8.55105 28.888 12.9999 26.3664 19.1243 24.783C23.2265 18.567 27.0976 13.5824 28.3109 13.5824C29.6398 13.5824 32.5287 14.8725 31.4887 15.9281C30.0442 17.4528 27.8487 20.209 25.4798 23.6102C27.1554 23.3756 28.8887 23.317 30.5642 23.317C32.4131 23.317 34.4931 27.4806 31.8353 27.4806C28.5998 27.4806 25.3643 27.6565 22.4754 28.067C16.6399 37.0392 10.5733 48.0639 10.5733 52.1689C10.5733 53.2831 6.81773 51.1133 6.81773 48.0639C6.81773 46.7152 8.20439 43.5485 10.2266 39.6195C10.2266 33.2275 0 35.7491 0 28.7121C0 20.3849 20.7998 5.6071 42.813 5.6071C48.8796 5.6071 53.2707 7.19044 54.4263 7.95279C55.5818 8.77377 59.3951 14.5793 57.3729 14.5793ZM11.0037 8.94102C13.6718 6.23299 16.7358 4.13633 20.1956 2.65105C23.7779 1.11318 27.5301 0.344238 31.4522 0.344238C35.3742 0.344238 39.1264 1.11317 42.7088 2.65105C43.6064 3.0364 44.4774 3.4629 45.3217 3.93056L44.9969 3.90816L44.3892 3.87663L43.7812 3.85537L43.1789 3.84431L42.803 3.84249L42.4171 3.84483C42.3591 3.81947 42.301 3.79429 42.2428 3.76929C38.8093 2.29535 35.2125 1.55839 31.4522 1.55839C27.6919 1.55839 24.095 2.29535 20.6616 3.76929C17.345 5.19309 14.4077 7.20318 11.8496 9.79957C10.0468 11.6293 8.53091 13.6502 7.30192 15.8623L7.15056 15.9774L6.67241 16.351L6.19866 16.7319L5.72952 17.1202L5.26526 17.5164L5.04741 17.7082C6.49344 14.426 8.47888 11.5036 11.0037 8.94102ZM58.0978 18.2705C59.613 21.9064 60.3706 25.7147 60.3706 29.6955C60.3706 33.6762 59.613 37.4846 58.0978 41.1205C56.6345 44.6322 54.5687 47.742 51.9006 50.4501C49.2326 53.158 46.1686 55.2547 42.7087 56.7401C39.1264 58.278 35.3742 59.0469 31.4522 59.0469C27.5301 59.0469 23.7779 58.278 20.1956 56.7401C17.3604 55.5229 14.7911 53.8952 12.4875 51.857L12.8629 50.5711C15.1751 52.6989 17.7747 54.3824 20.6616 55.6217C24.095 57.0956 27.6918 57.8326 31.4522 57.8326C35.2125 57.8326 38.8093 57.0956 42.2427 55.6217C45.5593 54.198 48.4967 52.1879 51.0548 49.5915C53.6128 46.9951 55.5932 44.0138 56.9961 40.6475C58.4483 37.1629 59.1744 33.5122 59.1744 29.6955C59.1744 25.8789 58.4483 22.2283 56.9961 18.7435C56.5538 17.6821 56.0541 16.659 55.497 15.6742L55.75 15.8177L55.8415 15.8661L56.3625 16.1216L56.8094 16.2691L57.0635 16.3158L57.2076 16.3306C57.5257 16.963 57.8224 17.6096 58.0978 18.2705ZM4.80645 41.1205C4.04109 39.2839 3.46903 37.4033 3.09028 35.4787L4.47287 36.2125C4.82567 37.7196 5.30412 39.1979 5.90822 40.6475C6.18854 41.3202 6.49192 41.9775 6.81836 42.6194L6.58985 43.1264L6.34483 43.6885L6.20428 44.0248C5.68942 43.0893 5.22349 42.1212 4.80645 41.1205Z" fill="#3DD9C9"/>
</svg>
